<svg id="wave" style="transform:rotate(0deg); transition: 0.3s" viewBox="0 0 1440 150" version="1.1" xmlns="http://www.w3.org/2000/svg"><defs><linearGradient id="sw-gradient-0" x1="0" x2="0" y1="1" y2="0"><stop stop-color="rgba(255, 255, 255, 1)" offset="0%"></stop><stop stop-color="rgba(255, 255, 255, 1)" offset="100%"></stop></linearGradient></defs><path style="transform:translate(0, 0px); opacity:1" fill="url(#sw-gradient-0)" d="M0,75L11.4,77.5C22.9,80,46,85,69,92.5C91.4,100,114,110,137,115C160,120,183,120,206,120C228.6,120,251,120,274,117.5C297.1,115,320,110,343,102.5C365.7,95,389,85,411,75C434.3,65,457,55,480,42.5C502.9,30,526,15,549,12.5C571.4,10,594,20,617,30C640,40,663,50,686,52.5C708.6,55,731,50,754,45C777.1,40,800,35,823,40C845.7,45,869,60,891,67.5C914.3,75,937,75,960,77.5C982.9,80,1006,85,1029,85C1051.4,85,1074,80,1097,70C1120,60,1143,45,1166,32.5C1188.6,20,1211,10,1234,25C1257.1,40,1280,80,1303,102.5C1325.7,125,1349,130,1371,110C1394.3,90,1417,45,1440,45C1462.9,45,1486,90,1509,105C1531.4,120,1554,105,1577,82.5C1600,60,1623,30,1634,15L1645.7,0L1645.7,150L1634.3,150C1622.9,150,1600,150,1577,150C1554.3,150,1531,150,1509,150C1485.7,150,1463,150,1440,150C1417.1,150,1394,150,1371,150C1348.6,150,1326,150,1303,150C1280,150,1257,150,1234,150C1211.4,150,1189,150,1166,150C1142.9,150,1120,150,1097,150C1074.3,150,1051,150,1029,150C1005.7,150,983,150,960,150C937.1,150,914,150,891,150C868.6,150,846,150,823,150C800,150,777,150,754,150C731.4,150,709,150,686,150C662.9,150,640,150,617,150C594.3,150,571,150,549,150C525.7,150,503,150,480,150C457.1,150,434,150,411,150C388.6,150,366,150,343,150C320,150,297,150,274,150C251.4,150,229,150,206,150C182.9,150,160,150,137,150C114.3,150,91,150,69,150C45.7,150,23,150,11,150L0,150Z"></path></svg>